<svg height="512pt" viewBox="-46 0 512 512.00037" width="512pt" xmlns="http://www.w3.org/2000/svg"><path d="m412.363281 38.8125c-13.257812-24.304688-39.6875-30.65625-60-26.164062-22.355469 4.945312-37.6875 22.160156-39.054687 43.792968-.964844 13.285156 4.097656 26.230469 13.886718 35.519532 9.234376 8.761718 21.558594 12.914062 33.820313 11.386718.03125-.003906.070313-.011718.105469-.015625 16.734375-2.324219 30.199218-14.597656 33.519531-30.59375 1.742187-8.753906-.082031-17.746093-5.140625-25.328125-5.0625-7.589844-12.683594-12.726562-21.453125-14.46875-.074219-.015625-.148437-.027344-.222656-.039062-8.386719-1.40625-17.265625 1.039062-23.75 6.542968-6.0625 5.144532-9.386719 12.304688-9.359375 20.160157 0 .183593.007812.363281.019531.546875.824219 10.703125 7.496094 19.089844 16.996094 21.367187.078125.019531.15625.035157.234375.054688 6.167968 1.273437 12.789062-.730469 16.871094-5.105469 3.082031-3.300781 4.769531-7.476562 4.628906-11.453125-.117188-3.277344-1.492188-6.296875-3.871094-8.503906-3.035156-2.820313-7.785156-2.644531-10.609375.386719-2.351563 2.53125-2.625 6.25-.886719 9.050781-.070312.097656-.152344.195312-.242187.292969-.417969.449218-1.746094.832031-2.753907.65625-4.296874-1.117188-5.1875-5.808594-5.371093-7.625.078125-4.148438 2.242187-6.851563 4.0625-8.398438 3.078125-2.609375 7.457031-3.832031 11.445312-3.195312 4.777344.980468 8.953125 3.835937 11.765625 8.050781 2.835938 4.25 3.871094 9.25 2.917969 14.023437-1.984375 9.574219-10.542969 17.265625-20.816406 18.714844-7.875.96875-15.535157-1.65625-21.570313-7.382812-6.421875-6.09375-9.878906-14.898438-9.246094-23.628907 1.140626-18.035156 14.859376-27.40625 27.320313-30.160156 14.824219-3.28125 34.046875 1.230469 43.570313 18.695313 6.957031 12.753906 11.210937 36.832031-8.019532 79.136718-20.046875 44.097656-60.445312 96.328125-120.066406 155.246094-2.949219 2.914062-2.972656 7.664062-.058594 10.605469 1.46875 1.484375 3.402344 2.226562 5.339844 2.226562 1.90625 0 3.816406-.71875 5.277344-2.167969 60.929687-60.207031 102.371094-113.941406 123.179687-159.710937 21.789063-47.933594 16.121094-76.765625 7.53125-92.515625zm0 0" fill="#fbc02d"/><path d="m284.222656 214.496094 20.429688 132.1875-191.222656 29.492187-20.429688-132.1875c-3.175781-20.550781 4.496094-41.804687 21.144531-58.539062l.015625-.003907c24.089844-24.21875 23.144532-48.558593 20.148438-66.191406-1.773438-10.417968-6.734375-20.125-14.488282-27.3125-6.554687-6.078125-11.007812-13.828125-12.375-22.671875-3.808593-24.636719 17.78125-48.40625 48.234376-53.101562 30.449218-4.695313 58.210937 11.460937 62.019531 36.097656 1.367187 8.84375-.539063 17.570313-4.953125 25.339844-5.199219 9.148437-6.957032 19.847656-5.515625 30.265625 2.453125 17.792968 8.707031 41.269531 39.140625 57.183594l.015625-.003907c20.929687 10.941407 34.660156 28.894531 37.835937 49.445313zm0 0" fill="#eceff1"/><path d="m284.222656 214.496094c-3.175781-20.550782-16.90625-38.503906-37.835937-49.445313l-.011719.003907c-30.4375-15.914063-36.6875-39.386719-39.144531-57.183594-1.4375-10.417969.320312-21.113282 5.515625-30.265625 4.414062-7.769531 6.320312-16.496094 4.953125-25.339844-3.804688-24.636719-31.566407-40.792969-62.019531-36.097656-1.75.269531-3.46875.609375-5.15625 1.003906 19.003906 4.621094 33.558593 17.75 36.242187 35.09375 1.363281 8.84375-.542969 17.570313-4.957031 25.339844-5.195313 9.148437-6.953125 19.847656-5.515625 30.265625 2.457031 17.796875 8.707031 41.269531 39.144531 57.183594l.011719-.003907c20.929687 10.941407 34.660156 28.894531 37.835937 49.445313l20.429688 132.1875-161.007813 24.832031.722657 4.660156 191.222656-29.496093zm0 0" fill="#cfd8dc"/><path d="m214.15625 510v-10.660156c0-20.035156-16.253906-36.273438-36.308594-36.273438-20.054687 0-36.308594 16.238282-36.308594 36.273438v10.660156c0 1.105469-.898437 2-2.003906 2h-53.164062c-.976563 0-1.8125-.707031-1.976563-1.671875l-84.3124998-503.890625c-.5976562-3.5625 2.2070308-6.4375 5.3828128-6.4375.878906 0 1.777344.214844 2.640625.703125 10.871093 6.066406 19.347656 15.71875 24.007812 27.328125l71.578125 178.097656c27.925782 64.996094 89.203125 106.738282 156.71875 106.738282h48.671875c6.042969 0 11.210938 4.367187 12.273438 10.363281l32.558593 184.074219c.433594 2.449218-1.449218 4.695312-3.9375 4.695312h-133.820312c-1.105469 0-2-.894531-2-2zm0 0" fill="#ff5722"/><path d="m321.351562 323.230469c-1.058593-6-6.230468-10.367188-12.269531-10.367188h-30.9375c6.039063 0 11.210938 4.367188 12.269531 10.367188l33.394532 188.769531h26.167968c2.488282 0 4.371094-2.246094 3.9375-4.695312zm0 0" fill="#f4511e"/><path d="m5.492188 38.765625 67.257812 167.359375c27.933594 65.003906 89.210938 106.738281 156.71875 106.738281h30.9375c-67.507812 0-128.785156-41.734375-156.71875-106.738281l-71.570312-178.089844c-4.671876-11.613281-13.148438-21.265625-24.015626-27.332031-3.996093-2.234375-8.78125 1.183594-8.0195308 5.730469zm0 0" fill="#f4511e"/><path d="m384.652344 384.34375v8.824219c0 2.773437-2.25 5.023437-5.023438 5.023437h-10.636718c-4.628907 0-8.382813 3.75-8.382813 8.378906v37.085938c0 8.910156-7.148437 16.265625-16.058594 16.320312-24.53125.140626-44.460937-19.695312-44.460937-44.1875v-35.84375c0-14.972656 12.140625-27.109374 27.113281-27.109374h11.40625c4.300781 0 8.425781 1.710937 11.464844 4.757812l4.992187 5.007812c3.550782 3.558594 8.367188 5.554688 13.394532 5.554688 8.941406 0 16.191406 7.25 16.191406 16.1875zm0 0" fill="#fdd835"/><path d="m368.460938 368.15625c-5.027344 0-9.84375-1.996094-13.394532-5.554688l-4.992187-5.007812c-3.039063-3.046875-7.164063-4.757812-11.464844-4.757812h-11.40625c-3.957031 0-7.710937.855468-11.097656 2.378906 1.097656.667968 2.128906 1.453125 3.054687 2.378906l4.992188 5.007812c3.550781 3.558594 8.371094 5.554688 13.394531 5.554688 8.941406 0 16.191406 7.25 16.191406 16.1875v8.824219c0 2.773437-2.25 5.023437-5.023437 5.023437h-10.636719c-4.628906 0-8.378906 3.75-8.378906 8.378906v37.085938c0 4.597656-1.914063 8.769531-4.980469 11.75 5.976562 2.957031 12.707031 4.609375 19.832031 4.566406 8.914063-.050781 16.0625-7.40625 16.0625-16.316406v-37.089844c0-4.625 3.75-8.378906 8.378907-8.378906h10.636718c2.777344 0 5.023438-2.246094 5.023438-5.019531v-8.824219c0-8.9375-7.25-16.1875-16.191406-16.1875zm0 0" fill="#fbc02d"/></svg>